# This file uses centimeters as units for non-parametric coordinates.

mtllib triad_sphere.mtl
g default
v 0.850547 0.000000 -0.525668
v 0.850551 0.000000 0.525670
v -0.850550 0.000000 0.525669
v -0.850549 -0.000000 -0.525669
v -0.000000 -0.525719 0.850631
v -0.000000 0.525719 0.850631
v 0.000000 0.525717 -0.850629
v 0.000000 -0.525717 -0.850629
v -0.525719 -0.850631 -0.000000
v 0.525719 -0.850632 0.000000
v 0.525719 0.850632 0.000000
v -0.525719 0.850631 -0.000000
v 0.295349 0.955379 -0.000013
v 0.001762 0.999986 0.000012
v -0.294040 0.955793 -0.000000
v -0.295353 -0.955378 -0.000017
v -0.001770 -0.999986 0.000004
v 0.294040 -0.955793 0.000000
v -0.147551 -0.681646 -0.716523
v -0.308216 -0.808499 -0.501231
v -0.441753 -0.864762 -0.238606
v -0.442168 0.864835 -0.237552
v -0.309805 0.809484 -0.498668
v -0.148304 0.682370 -0.715684
v -0.716509 0.147441 -0.681653
v -0.501145 0.308090 -0.808526
v -0.239299 0.443607 -0.863542
v -0.238307 -0.444311 -0.863449
v -0.498550 -0.309842 -0.809449
v -0.715895 -0.146809 -0.682423
v -0.147666 0.681604 0.716540
v -0.308322 0.808426 0.501283
v -0.441850 0.864713 0.238605
v -0.442047 -0.864912 0.237500
v -0.309710 -0.809573 0.498581
v -0.148228 -0.682457 0.715619
v -0.716702 -0.147539 0.681434
v -0.501243 -0.308197 0.808428
v -0.239441 -0.443679 0.863468
v -0.238475 0.444297 0.863412
v -0.498742 0.309743 0.809372
v -0.715961 0.146634 0.682394
v -0.680463 0.717585 -0.148182
v -0.808444 0.501112 -0.308322
v -0.863523 0.239452 -0.443663
v -0.863636 0.238282 0.444073
v -0.809567 0.498609 0.309464
v -0.681422 0.716873 0.147123
v -0.954976 0.001240 0.296236
v -0.999971 -0.000049 0.001646
v -0.955394 0.001142 -0.294876
v -0.680368 -0.717684 0.148151
v -0.808463 -0.501126 0.308251
v -0.864331 -0.238239 0.442783
v -0.864343 -0.237171 -0.443325
v -0.809341 -0.498921 -0.309547
v -0.681218 -0.717063 -0.147153
v 0.442102 0.864861 0.237586
v 0.309725 0.809438 0.498795
v 0.146603 0.682409 0.716001
v 0.146160 -0.681767 0.716699
v 0.308526 -0.808431 0.501151
v 0.441954 -0.864663 0.238592
v -0.001107 0.296237 0.955080
v 0.000186 0.001648 0.999983
v -0.000927 -0.294776 0.955544
v 0.716529 0.147457 0.681633
v 0.501098 0.308114 0.808548
v 0.238197 0.442813 0.864258
v 0.237288 -0.443492 0.864155
v 0.498785 -0.309766 0.809338
v 0.716030 -0.146717 0.682308
v 0.442190 -0.864798 -0.237648
v 0.309757 -0.809374 -0.498877
v 0.146598 -0.682362 -0.716044
v 0.146058 0.681878 -0.716613
v 0.308362 0.808533 -0.501087
v 0.441812 0.864754 -0.238522
v 0.238437 0.444157 -0.863493
v 0.498761 0.309708 -0.809371
v 0.715765 0.148337 -0.682224
v -0.001195 -0.296269 -0.955065
v 0.000099 -0.001570 -0.999982
v 0.000001 0.295584 -0.955301
v 0.716906 -0.145929 -0.681568
v 0.501149 -0.308245 -0.808464
v 0.238217 -0.442917 -0.864195
v 0.680346 0.717703 0.148169
v 0.808378 0.501227 0.308316
v 0.863506 0.239508 0.443671
v 0.863611 0.238304 -0.444102
v 0.809474 0.498718 -0.309525
v 0.681301 0.716981 -0.147151
v 0.954978 0.001135 -0.296221
v 0.999973 -0.000131 -0.001625
v 0.955393 0.001099 0.294891
v 0.680472 -0.717577 -0.148173
v 0.808504 -0.501047 -0.308266
v 0.864326 -0.238255 -0.442777
v 0.864396 -0.237015 0.443312
v 0.809446 -0.498749 0.309560
v 0.681351 -0.716923 0.147223
v 0.162074 -0.951029 -0.263155
v -0.161596 -0.951098 -0.263199
v 0.000000 -0.851385 -0.524509
v -0.162036 0.951056 -0.263082
v 0.161661 0.951112 -0.263104
v 0.000065 0.851468 -0.524375
v 0.162062 0.951041 0.263123
v -0.161613 0.951090 0.263218
v -0.000000 0.851390 0.524502
v -0.162018 -0.951056 0.263093
v 0.161699 -0.951105 0.263110
v 0.000117 -0.851488 0.524344
v -0.425721 -0.587785 -0.687835
v -0.587468 -0.687820 -0.426287
v -0.687345 -0.426576 -0.587681
v -0.587755 0.687781 -0.425944
v -0.426012 0.587845 -0.687605
v -0.687366 0.426308 -0.587855
v -0.263015 -0.162084 -0.950923
v -0.524768 -0.000387 -0.851097
v -0.263497 0.160984 -0.950981
v -0.587944 0.687762 0.425708
v -0.687977 0.426016 0.587358
v -0.426787 0.587703 0.687252
v -0.587695 -0.687891 0.425849
v -0.426010 -0.587961 0.687508
v -0.687393 -0.426440 0.587728
v -0.263087 0.162007 0.950919
v -0.524898 0.000254 0.851020
v -0.263542 -0.161078 0.950955
v -0.851009 0.525111 -0.000000
v -0.950866 0.263568 -0.161749
v -0.950990 0.263627 0.160951
v -0.850875 -0.525325 -0.000000
v -0.950812 -0.263785 0.161726
v -0.950923 -0.263873 -0.160954
v 0.587701 0.687820 0.425960
v 0.426050 0.587797 0.687626
v 0.687340 0.426327 0.587875
v 0.687966 -0.425773 0.587552
v 0.426549 -0.587504 0.687566
v 0.587917 -0.687250 0.426597
v 0.525377 -0.000035 0.850730
v 0.263701 0.161608 0.950820
v 0.263867 -0.161144 0.950855
v 0.587790 -0.687738 -0.425963
v 0.426111 -0.587785 -0.687595
v 0.687404 -0.426366 -0.587766
v 0.425984 0.587759 -0.687695
v 0.587640 0.687727 -0.426195
v 0.687580 0.426365 -0.587560
v 0.263133 -0.162022 -0.950900
v 0.263317 0.161289 -0.950977
v 0.524549 0.000000 -0.851233
v 0.850948 0.525212 0.000000
v 0.950856 0.263605 0.161768
v 0.950988 0.263636 -0.160933
v 0.850943 -0.525220 0.000000
v 0.950815 -0.263771 -0.161714
v 0.950930 -0.263847 0.160971
vt 0.181818 0.250000
vt 0.363636 0.250000
vt 0.545455 0.250000
vt 0.727273 0.250000
vt 0.909091 0.250000
vt 0.090909 0.416667
vt 0.272727 0.416667
vt 0.454545 0.416667
vt 0.636364 0.416667
vt 0.818182 0.416667
vt 1.000000 0.416667
vt 0.000000 0.583333
vt 0.181818 0.583333
vt 0.363636 0.583333
vt 0.545455 0.583333
vt 0.727273 0.583333
vt 0.909091 0.583333
vt 0.090909 0.750000
vt 0.272727 0.750000
vt 0.454545 0.750000
vt 0.636364 0.750000
vt 0.818182 0.750000
vt 0.840909 0.375000
vt 0.795455 0.375000
vt 0.863636 0.333333
vt 0.772727 0.333333
vt 0.886364 0.291667
vt 0.750000 0.291667
vt 0.340909 0.625000
vt 0.386364 0.625000
vt 0.318182 0.666667
vt 0.409091 0.666667
vt 0.295455 0.708333
vt 0.431818 0.708333
vt 0.500000 0.583333
vt 0.454545 0.583333
vt 0.409091 0.583333
vt 0.568182 0.291667
vt 0.704545 0.291667
vt 0.590909 0.333333
vt 0.681818 0.333333
vt 0.613636 0.375000
vt 0.659091 0.375000
vt 0.500000 0.416667
vt 0.545455 0.416667
vt 0.590909 0.416667
vt 0.522727 0.541667
vt 0.500000 0.500000
vt 0.477273 0.458333
vt 0.113636 0.375000
vt 0.977273 0.375000
vt 0.136364 0.333333
vt 0.954545 0.333333
vt 0.159091 0.291667
vt 0.931818 0.291667
vt 0.318182 0.583333
vt 0.272727 0.583333
vt 0.227273 0.583333
vt 0.250000 0.458333
vt 0.227273 0.500000
vt 0.204545 0.541667
vt 0.136364 0.416667
vt 0.181818 0.416667
vt 0.227273 0.416667
vt 0.386364 0.291667
vt 0.522727 0.291667
vt 0.409091 0.333333
vt 0.500000 0.333333
vt 0.431818 0.375000
vt 0.477273 0.375000
vt 0.295455 0.375000
vt 0.250000 0.375000
vt 0.318182 0.333333
vt 0.227273 0.333333
vt 0.340909 0.291667
vt 0.204545 0.291667
vt 0.318182 0.416667
vt 0.363636 0.416667
vt 0.409091 0.416667
vt 0.340909 0.541667
vt 0.318182 0.500000
vt 0.295455 0.458333
vt 0.431818 0.458333
vt 0.409091 0.500000
vt 0.386364 0.541667
vt 0.863636 0.416667
vt 0.909091 0.416667
vt 0.954545 0.416667
vt 0.159091 0.625000
vt 0.204545 0.625000
vt 0.136364 0.666667
vt 0.227273 0.666667
vt 0.113636 0.708333
vt 0.250000 0.708333
vt 0.113636 0.458333
vt 0.136364 0.500000
vt 0.159091 0.541667
vt 0.022727 0.541667
vt 0.931818 0.541667
vt 0.045455 0.500000
vt 0.954545 0.500000
vt 0.068182 0.458333
vt 0.977273 0.458333
vt 0.136364 0.583333
vt 0.090909 0.583333
vt 0.045455 0.583333
vt 0.613636 0.708333
vt 0.477273 0.708333
vt 0.590909 0.666667
vt 0.500000 0.666667
vt 0.568182 0.625000
vt 0.522727 0.625000
vt 0.681818 0.416667
vt 0.727273 0.416667
vt 0.772727 0.416667
vt 0.659091 0.458333
vt 0.681818 0.500000
vt 0.704545 0.541667
vt 0.568182 0.541667
vt 0.590909 0.500000
vt 0.613636 0.458333
vt 0.681818 0.583333
vt 0.636364 0.583333
vt 0.590909 0.583333
vt 0.840909 0.458333
vt 0.863636 0.500000
vt 0.886364 0.541667
vt 0.750000 0.541667
vt 0.772727 0.500000
vt 0.795455 0.458333
vt 0.772727 0.583333
vt 0.818182 0.583333
vt 0.863636 0.583333
vt 0.795455 0.708333
vt 0.659091 0.708333
vt 0.772727 0.666667
vt 0.681818 0.666667
vt 0.750000 0.625000
vt 0.704545 0.625000
vt 0.886364 0.625000
vt 0.022727 0.625000
vt 0.863636 0.666667
vt 0.045455 0.666667
vt 0.840909 0.708333
vt 0.068182 0.708333
vt 0.454545 0.666667
vt 0.431818 0.625000
vt 0.477273 0.625000
vt 0.727273 0.333333
vt 0.750000 0.375000
vt 0.704545 0.375000
vt 0.886364 0.375000
vt 0.909091 0.333333
vt 0.931818 0.375000
vt 0.295455 0.625000
vt 0.272727 0.666667
vt 0.250000 0.625000
vt 0.477273 0.541667
vt 0.431818 0.541667
vt 0.454545 0.500000
vt 0.545455 0.333333
vt 0.568182 0.375000
vt 0.522727 0.375000
vt 0.545455 0.500000
vt 0.522727 0.458333
vt 0.568182 0.458333
vt 0.181818 0.333333
vt 0.204545 0.375000
vt 0.159091 0.375000
vt 0.295455 0.541667
vt 0.250000 0.541667
vt 0.272727 0.500000
vt 0.159091 0.458333
vt 0.204545 0.458333
vt 0.181818 0.500000
vt 0.363636 0.333333
vt 0.386364 0.375000
vt 0.340909 0.375000
vt 0.363636 0.500000
vt 0.340909 0.458333
vt 0.386364 0.458333
vt 0.886364 0.458333
vt 0.931818 0.458333
vt 0.909091 0.500000
vt 0.068182 0.625000
vt 0.113636 0.625000
vt 0.090909 0.666667
vt 0.068182 0.541667
vt 0.090909 0.500000
vt 0.113636 0.541667
vt 0.636364 0.666667
vt 0.613636 0.625000
vt 0.659091 0.625000
vt 0.704545 0.458333
vt 0.750000 0.458333
vt 0.727273 0.500000
vt 0.613636 0.541667
vt 0.636364 0.500000
vt 0.659091 0.541667
vt 0.818182 0.500000
vt 0.840909 0.541667
vt 0.795455 0.541667
vt 0.818182 0.666667
vt 0.795455 0.625000
vt 0.840909 0.625000
vn 0.850583 0.000532 0.525841
vn 0.864232 -0.240404 0.441937
vn 0.956369 0.000676 0.292161
vn 0.850453 0.000376 -0.526052
vn 0.863753 0.241341 -0.442364
vn 0.956076 0.000516 -0.293117
vn 0.714968 -0.148419 -0.683223
vn 0.714157 0.149837 -0.683761
vn 0.864068 -0.241362 -0.441737
vn -0.000730 -0.525926 0.850530
vn 0.240814 -0.441924 0.864125
vn -0.000556 -0.292058 0.956401
vn 0.525269 -0.850936 0.000174
vn 0.683122 -0.714875 0.149327
vn 0.441337 -0.864176 0.241703
vn 0.863716 0.242126 0.442007
vn 0.714800 0.149237 0.683220
vn -0.850566 0.000470 -0.525868
vn -0.864130 -0.240614 -0.442023
vn -0.956370 0.000654 -0.292158
vn -0.850452 0.000035 0.526053
vn -0.863778 0.241159 0.442413
vn -0.956077 0.000547 0.293117
vn -0.242281 -0.441928 0.863713
vn -0.864089 -0.241462 0.441641
vn -0.714921 -0.149237 0.683093
vn -0.000081 0.526126 0.850407
vn -0.149381 0.683286 0.714706
vn -0.241582 0.442463 0.863635
vn -0.000481 0.526085 -0.850432
vn -0.000096 0.292480 -0.956272
vn -0.242136 0.441869 -0.863784
vn -0.863726 0.242084 -0.442009
vn -0.714718 0.149148 -0.683325
vn -0.714294 -0.149162 -0.683765
vn -0.149845 -0.683785 0.714132
vn 0.148600 -0.683298 0.714858
vn 0.149053 0.683630 0.714446
vn -0.149896 0.683724 -0.714179
vn 0.148456 0.683446 -0.714746
vn -0.000049 -0.526129 -0.850405
vn 0.149076 -0.683614 -0.714457
vn -0.149148 -0.683315 -0.714728
vn -0.441231 -0.864231 -0.241704
vn -0.292640 -0.956223 -0.000162
vn -0.525422 -0.850842 -0.000204
vn 0.291690 -0.956513 0.000113
vn 0.441378 -0.864370 -0.240937
vn 0.154592 -0.951125 -0.267324
vn -0.000816 -1.000000 -0.000020
vn -0.154666 -0.950997 -0.267738
vn -0.308606 -0.808883 -0.500471
vn 0.309283 -0.809244 -0.499469
vn 0.000157 -0.855514 -0.517779
vn 0.441309 0.864208 -0.241642
vn 0.292659 0.956217 -0.000120
vn 0.525441 0.850830 -0.000186
vn -0.291665 0.956521 0.000151
vn -0.441368 0.864397 -0.240859
vn -0.525268 0.850937 0.000199
vn -0.154559 0.951154 -0.267241
vn 0.000829 1.000000 0.000023
vn 0.154725 0.951010 -0.267658
vn 0.308597 0.808896 -0.500456
vn -0.309438 0.809332 -0.499229
vn -0.000377 0.855590 -0.517655
vn -0.441245 0.864245 0.241626
vn 0.441401 0.864359 0.240934
vn 0.154973 0.951052 0.267366
vn -0.154298 0.951072 0.267685
vn -0.308825 0.808832 0.500417
vn 0.309245 0.809287 0.499421
vn 0.000115 0.855518 0.517774
vn -0.441383 -0.864390 0.240855
vn -0.154921 -0.951081 0.267292
vn 0.154382 -0.951080 0.267606
vn 0.308765 -0.808785 0.500530
vn -0.309369 -0.809399 0.499163
vn -0.000281 -0.855593 0.517649
vn -0.682992 -0.715009 -0.149279
vn -0.241349 -0.442453 -0.863705
vn -0.432657 -0.587839 -0.683559
vn -0.587530 -0.683532 -0.433120
vn -0.809153 -0.499597 -0.309312
vn -0.499262 -0.309483 -0.809295
vn -0.683204 -0.432843 -0.588115
vn -0.682619 0.715339 -0.149403
vn -0.587596 0.683667 -0.432816
vn -0.433269 0.587816 -0.683192
vn -0.500391 0.308603 -0.808933
vn -0.808691 0.500580 -0.308932
vn -0.683278 0.433226 -0.587747
vn -0.000504 -0.293259 -0.956033
vn -0.267658 -0.155437 -0.950894
vn -0.517724 -0.000442 -0.855548
vn -0.000037 -0.000800 -1.000000
vn -0.267933 0.154385 -0.950988
vn -0.714303 0.148990 0.683793
vn -0.683167 0.714866 0.149159
vn -0.587940 0.683397 0.432777
vn -0.809291 0.499463 0.309167
vn -0.683458 0.432689 0.587933
vn -0.499513 0.309362 0.809186
vn -0.433280 0.587752 0.683239
vn -0.682531 -0.715428 0.149377
vn -0.587545 -0.683765 0.432731
vn -0.433270 -0.587933 0.683090
vn -0.500496 -0.308708 0.808828
vn -0.808745 -0.500536 0.308862
vn -0.683494 -0.433180 0.587530
vn -0.000421 0.293191 0.956054
vn -0.267725 0.155377 0.950885
vn -0.517838 0.000314 0.855479
vn 0.000036 0.000914 1.000000
vn -0.268137 -0.154335 0.950938
vn -0.855209 0.518284 -0.000046
vn -0.950888 0.268005 -0.154868
vn -1.000000 0.000078 0.000779
vn -0.950964 0.267726 0.154889
vn -0.855088 -0.518483 -0.000000
vn -0.950893 -0.267807 0.155181
vn -0.951104 -0.267454 -0.154499
vn 0.241526 0.441766 0.864007
vn 0.682537 0.715419 0.149394
vn 0.587538 0.683705 0.432837
vn 0.432856 0.587793 0.683473
vn 0.500318 0.308707 0.808939
vn 0.808638 0.500666 0.308930
vn 0.683257 0.433249 0.587754
vn 0.714459 -0.148961 0.683637
vn 0.683607 -0.432339 0.588018
vn 0.499458 -0.309244 0.809265
vn 0.432753 -0.587582 0.683720
vn 0.809308 -0.499359 0.309291
vn 0.587908 -0.683168 0.433181
vn 0.518103 -0.000141 0.855319
vn 0.268003 0.155017 0.950865
vn 0.267728 -0.154537 0.951021
vn 0.241493 -0.441855 -0.863971
vn 0.682620 -0.715339 -0.149399
vn 0.587631 -0.683634 -0.432823
vn 0.432903 -0.587795 -0.683442
vn 0.500382 -0.308630 -0.808929
vn 0.808784 -0.500459 -0.308883
vn 0.683588 -0.432857 -0.587658
vn 0.683071 0.714937 -0.149260
vn 0.241252 0.442284 -0.863819
vn 0.432623 0.587883 -0.683543
vn 0.587695 0.683447 -0.433030
vn 0.809188 0.499564 -0.309273
vn 0.499315 0.309441 -0.809278
vn 0.683122 0.433102 -0.588020
vn 0.267647 -0.155206 -0.950935
vn 0.267548 0.154685 -0.951047
vn 0.517692 0.000326 -0.855567
vn 0.855153 0.518375 0.000023
vn 0.950878 0.268040 0.154874
vn 1.000000 0.000053 -0.000772
vn 0.950956 0.267745 -0.154902
vn 0.855144 -0.518391 -0.000006
vn 0.950896 -0.267799 -0.155182
vn 0.951117 -0.267409 0.154498
s 1
g triSphere1
usemtl initialShadingGroup
f 2/17/1 100/140/2 96/133/3
f 1/16/4 91/128/5 94/131/6
f 1/16/4 85/122/7 81/118/8
f 1/16/4 81/118/8 91/128/5
f 1/16/4 99/139/9 85/122/7
f 5/13/10 70/104/11 66/97/12
f 10/18/13 102/145/14 63/93/15
f 2/17/1 90/127/16 67/99/17
f 4/8/18 55/83/19 51/79/20
f 3/7/21 46/71/22 49/77/23
f 5/13/10 66/97/12 39/61/24
f 3/7/21 54/82/25 37/59/26
f 6/6/27 31/50/28 40/62/29
f 7/9/30 84/121/31 27/46/32
f 4/8/18 45/70/33 25/44/34
f 4/8/18 30/49/35 55/83/19
f 5/13/10 36/58/36 61/90/37
f 6/11/27 60/88/38 31/51/28
f 7/9/30 24/43/39 76/113/40
f 8/15/41 75/112/42 19/35/43
f 21/37/44 16/30/45 9/14/46
f 18/34/47 73/108/48 10/20/13
f 18/34/47 103/146/49 73/108/48
f 17/32/50 103/146/49 18/34/47
f 17/32/50 104/147/51 103/146/49
f 16/30/45 104/147/51 17/32/50
f 21/37/44 104/147/51 16/30/45
f 20/36/52 104/147/51 21/37/44
f 103/146/49 74/110/53 73/108/48
f 103/146/49 105/148/54 74/110/53
f 104/147/51 105/148/54 103/146/49
f 20/36/52 105/148/54 104/147/51
f 19/35/43 105/148/54 20/36/52
f 105/148/54 75/112/42 74/110/53
f 19/35/43 75/112/42 105/148/54
f 78/115/55 13/24/56 11/10/57
f 15/28/58 22/39/59 12/4/60
f 15/28/58 106/149/61 22/39/59
f 14/26/62 106/149/61 15/28/58
f 14/26/62 107/150/63 106/149/61
f 13/24/56 107/150/63 14/26/62
f 78/115/55 107/150/63 13/24/56
f 77/114/64 107/150/63 78/115/55
f 106/149/61 23/41/65 22/39/59
f 106/149/61 108/151/66 23/41/65
f 107/150/63 108/151/66 106/149/61
f 77/114/64 108/151/66 107/150/63
f 76/113/40 108/151/66 77/114/64
f 108/151/66 24/43/39 23/41/65
f 76/113/40 24/43/39 108/151/66
f 33/55/67 15/27/58 12/5/60
f 13/23/56 58/86/68 11/10/57
f 13/23/56 109/152/69 58/86/68
f 14/25/62 109/152/69 13/23/56
f 14/25/62 110/153/70 109/152/69
f 15/27/58 110/153/70 14/25/62
f 33/55/67 110/153/70 15/27/58
f 32/53/71 110/153/70 33/55/67
f 109/152/69 59/87/72 58/86/68
f 109/152/69 111/154/73 59/87/72
f 110/153/70 111/154/73 109/152/69
f 32/53/71 111/154/73 110/153/70
f 31/51/28 111/154/73 32/53/71
f 111/154/73 60/88/38 59/87/72
f 31/51/28 60/88/38 111/154/73
f 63/94/15 18/33/47 10/19/13
f 16/29/45 34/56/74 9/14/46
f 16/29/45 112/155/75 34/56/74
f 17/31/50 112/155/75 16/29/45
f 17/31/50 113/156/76 112/155/75
f 18/33/47 113/156/76 17/31/50
f 63/94/15 113/156/76 18/33/47
f 62/92/77 113/156/76 63/94/15
f 112/155/75 35/57/78 34/56/74
f 112/155/75 114/157/79 35/57/78
f 113/156/76 114/157/79 112/155/75
f 62/92/77 114/157/79 113/156/76
f 61/90/37 114/157/79 62/92/77
f 114/157/79 36/58/36 35/57/78
f 61/90/37 36/58/36 114/157/79
f 57/85/80 21/37/44 9/14/46
f 19/35/43 28/47/81 8/15/41
f 19/35/43 115/158/82 28/47/81
f 20/36/52 115/158/82 19/35/43
f 20/36/52 116/159/83 115/158/82
f 21/37/44 116/159/83 20/36/52
f 57/85/80 116/159/83 21/37/44
f 56/84/84 116/159/83 57/85/80
f 115/158/82 29/48/85 28/47/81
f 115/158/82 117/160/86 29/48/85
f 116/159/83 117/160/86 115/158/82
f 56/84/84 117/160/86 116/159/83
f 55/83/19 117/160/86 56/84/84
f 117/160/86 30/49/35 29/48/85
f 55/83/19 30/49/35 117/160/86
f 27/46/32 24/42/39 7/9/30
f 22/38/59 43/66/87 12/3/60
f 22/38/59 118/161/88 43/66/87
f 23/40/65 118/161/88 22/38/59
f 23/40/65 119/162/89 118/161/88
f 24/42/39 119/162/89 23/40/65
f 27/46/32 119/162/89 24/42/39
f 26/45/90 119/162/89 27/46/32
f 118/161/88 44/68/91 43/66/87
f 118/161/88 120/163/92 44/68/91
f 119/162/89 120/163/92 118/161/88
f 26/45/90 120/163/92 119/162/89
f 25/44/34 120/163/92 26/45/90
f 120/163/92 45/70/33 44/68/91
f 25/44/34 45/70/33 120/163/92
f 25/44/34 30/49/35 4/8/18
f 28/47/81 82/119/93 8/15/41
f 28/47/81 121/164/94 82/119/93
f 29/48/85 121/164/94 28/47/81
f 29/48/85 122/165/95 121/164/94
f 30/49/35 122/165/95 29/48/85
f 25/44/34 122/165/95 30/49/35
f 26/45/90 122/165/95 25/44/34
f 121/164/94 83/120/96 82/119/93
f 121/164/94 123/166/97 83/120/96
f 122/165/95 123/166/97 121/164/94
f 26/45/90 123/166/97 122/165/95
f 27/46/32 123/166/97 26/45/90
f 123/166/97 84/121/31 83/120/96
f 27/46/32 84/121/31 123/166/97
f 42/64/98 46/72/22 3/7/21
f 48/76/99 33/54/67 12/1/60
f 48/76/99 124/167/100 33/54/67
f 47/74/101 124/167/100 48/76/99
f 47/74/101 125/168/102 124/167/100
f 46/72/22 125/168/102 47/74/101
f 42/64/98 125/168/102 46/72/22
f 41/63/103 125/168/102 42/64/98
f 124/167/100 32/52/71 33/54/67
f 124/167/100 126/169/104 32/52/71
f 125/168/102 126/169/104 124/167/100
f 41/63/103 126/169/104 125/168/102
f 40/62/29 126/169/104 41/63/103
f 126/169/104 31/50/28 32/52/71
f 40/62/29 31/50/28 126/169/104
f 39/61/24 36/58/36 5/13/10
f 34/56/74 52/80/105 9/14/46
f 34/56/74 127/170/106 52/80/105
f 35/57/78 127/170/106 34/56/74
f 35/57/78 128/171/107 127/170/106
f 36/58/36 128/171/107 35/57/78
f 39/61/24 128/171/107 36/58/36
f 38/60/108 128/171/107 39/61/24
f 127/170/106 53/81/109 52/80/105
f 127/170/106 129/172/110 53/81/109
f 128/171/107 129/172/110 127/170/106
f 38/60/108 129/172/110 128/171/107
f 37/59/26 129/172/110 38/60/108
f 129/172/110 54/82/25 53/81/109
f 37/59/26 54/82/25 129/172/110
f 37/59/26 42/64/98 3/7/21
f 40/62/29 64/95/111 6/6/27
f 40/62/29 130/173/112 64/95/111
f 41/63/103 130/173/112 40/62/29
f 41/63/103 131/174/113 130/173/112
f 42/64/98 131/174/113 41/63/103
f 37/59/26 131/174/113 42/64/98
f 38/60/108 131/174/113 37/59/26
f 130/173/112 65/96/114 64/95/111
f 130/173/112 132/175/115 65/96/114
f 131/174/113 132/175/115 130/173/112
f 38/60/108 132/175/115 131/174/113
f 39/61/24 132/175/115 38/60/108
f 132/175/115 66/97/12 65/96/114
f 39/61/24 66/97/12 132/175/115
f 51/79/20 45/69/33 4/8/18
f 43/65/87 48/75/99 12/2/60
f 43/65/87 133/176/116 48/75/99
f 44/67/91 133/176/116 43/65/87
f 44/67/91 134/177/117 133/176/116
f 45/69/33 134/177/117 44/67/91
f 51/79/20 134/177/117 45/69/33
f 50/78/118 134/177/117 51/79/20
f 133/176/116 47/73/101 48/75/99
f 133/176/116 135/178/119 47/73/101
f 134/177/117 135/178/119 133/176/116
f 50/78/118 135/178/119 134/177/117
f 49/77/23 135/178/119 50/78/118
f 135/178/119 46/71/22 47/73/101
f 49/77/23 46/71/22 135/178/119
f 49/77/23 54/82/25 3/7/21
f 52/80/105 57/85/80 9/14/46
f 52/80/105 136/179/120 57/85/80
f 53/81/109 136/179/120 52/80/105
f 53/81/109 137/180/121 136/179/120
f 54/82/25 137/180/121 53/81/109
f 49/77/23 137/180/121 54/82/25
f 50/78/118 137/180/121 49/77/23
f 136/179/120 56/84/84 57/85/80
f 136/179/120 138/181/122 56/84/84
f 137/180/121 138/181/122 136/179/120
f 50/78/118 138/181/122 137/180/121
f 51/79/20 138/181/122 50/78/118
f 138/181/122 55/83/19 56/84/84
f 51/79/20 55/83/19 138/181/122
f 69/103/123 60/88/38 6/11/27
f 58/86/68 88/125/124 11/10/57
f 58/86/68 139/182/125 88/125/124
f 59/87/72 139/182/125 58/86/68
f 59/87/72 140/183/126 139/182/125
f 60/88/38 140/183/126 59/87/72
f 69/103/123 140/183/126 60/88/38
f 68/101/127 140/183/126 69/103/123
f 139/182/125 89/126/128 88/125/124
f 139/182/125 141/184/129 89/126/128
f 140/183/126 141/184/129 139/182/125
f 68/101/127 141/184/129 140/183/126
f 67/99/17 141/184/129 68/101/127
f 141/184/129 90/127/16 89/126/128
f 67/99/17 90/127/16 141/184/129
f 61/89/37 70/104/11 5/13/10
f 72/106/130 100/141/2 2/12/1
f 72/106/130 142/185/131 100/141/2
f 71/105/132 142/185/131 72/106/130
f 71/105/132 143/186/133 142/185/131
f 70/104/11 143/186/133 71/105/132
f 61/89/37 143/186/133 70/104/11
f 62/91/77 143/186/133 61/89/37
f 142/185/131 101/143/134 100/141/2
f 142/185/131 144/187/135 101/143/134
f 143/186/133 144/187/135 142/185/131
f 62/91/77 144/187/135 143/186/133
f 63/93/15 144/187/135 62/91/77
f 144/187/135 102/145/14 101/143/134
f 63/93/15 102/145/14 144/187/135
f 64/95/111 69/102/123 6/6/27
f 67/98/17 72/106/130 2/12/1
f 67/98/17 145/188/136 72/106/130
f 68/100/127 145/188/136 67/98/17
f 68/100/127 146/189/137 145/188/136
f 69/102/123 146/189/137 68/100/127
f 64/95/111 146/189/137 69/102/123
f 65/96/114 146/189/137 64/95/111
f 145/188/136 71/105/132 72/106/130
f 145/188/136 147/190/138 71/105/132
f 146/189/137 147/190/138 145/188/136
f 65/96/114 147/190/138 146/189/137
f 66/97/12 147/190/138 65/96/114
f 147/190/138 70/104/11 71/105/132
f 66/97/12 70/104/11 147/190/138
f 87/124/139 75/111/42 8/15/41
f 73/107/48 97/135/140 10/21/13
f 73/107/48 148/191/141 97/135/140
f 74/109/53 148/191/141 73/107/48
f 74/109/53 149/192/142 148/191/141
f 75/111/42 149/192/142 74/109/53
f 87/124/139 149/192/142 75/111/42
f 86/123/143 149/192/142 87/124/139
f 148/191/141 98/137/144 97/135/140
f 148/191/141 150/193/145 98/137/144
f 149/192/142 150/193/145 148/191/141
f 86/123/143 150/193/145 149/192/142
f 85/122/7 150/193/145 86/123/143
f 150/193/145 99/139/9 98/137/144
f 85/122/7 99/139/9 150/193/145
f 93/130/146 78/115/55 11/10/57
f 76/113/40 79/116/147 7/9/30
f 76/113/40 151/194/148 79/116/147
f 77/114/64 151/194/148 76/113/40
f 77/114/64 152/195/149 151/194/148
f 78/115/55 152/195/149 77/114/64
f 93/130/146 152/195/149 78/115/55
f 92/129/150 152/195/149 93/130/146
f 151/194/148 80/117/151 79/116/147
f 151/194/148 153/196/152 80/117/151
f 152/195/149 153/196/152 151/194/148
f 92/129/150 153/196/152 152/195/149
f 91/128/5 153/196/152 92/129/150
f 153/196/152 81/118/8 80/117/151
f 91/128/5 81/118/8 153/196/152
f 79/116/147 84/121/31 7/9/30
f 82/119/93 87/124/139 8/15/41
f 82/119/93 154/197/153 87/124/139
f 83/120/96 154/197/153 82/119/93
f 83/120/96 155/198/154 154/197/153
f 84/121/31 155/198/154 83/120/96
f 79/116/147 155/198/154 84/121/31
f 80/117/151 155/198/154 79/116/147
f 154/197/153 86/123/143 87/124/139
f 154/197/153 156/199/155 86/123/143
f 155/198/154 156/199/155 154/197/153
f 80/117/151 156/199/155 155/198/154
f 81/118/8 156/199/155 80/117/151
f 156/199/155 85/122/7 86/123/143
f 81/118/8 85/122/7 156/199/155
f 96/133/3 90/127/16 2/17/1
f 88/125/124 93/130/146 11/10/57
f 88/125/124 157/200/156 93/130/146
f 89/126/128 157/200/156 88/125/124
f 89/126/128 158/201/157 157/200/156
f 90/127/16 158/201/157 89/126/128
f 96/133/3 158/201/157 90/127/16
f 95/132/158 158/201/157 96/133/3
f 157/200/156 92/129/150 93/130/146
f 157/200/156 159/202/159 92/129/150
f 158/201/157 159/202/159 157/200/156
f 95/132/158 159/202/159 158/201/157
f 94/131/6 159/202/159 95/132/158
f 159/202/159 91/128/5 92/129/150
f 94/131/6 91/128/5 159/202/159
f 94/131/6 99/138/9 1/16/4
f 97/134/140 102/144/14 10/22/13
f 97/134/140 160/203/160 102/144/14
f 98/136/144 160/203/160 97/134/140
f 98/136/144 161/204/161 160/203/160
f 99/138/9 161/204/161 98/136/144
f 94/131/6 161/204/161 99/138/9
f 95/132/158 161/204/161 94/131/6
f 160/203/160 101/142/134 102/144/14
f 160/203/160 162/205/162 101/142/134
f 161/204/161 162/205/162 160/203/160
f 95/132/158 162/205/162 161/204/161
f 96/133/3 162/205/162 95/132/158
f 162/205/162 100/140/2 101/142/134
f 96/133/3 100/140/2 162/205/162
